<?xml version="1.0" encoding="UTF-8"?>
<!DOCTYPE svg PUBLIC "-//W3C//DTD SVG 1.1//EN" "http://www.w3.org/Graphics/SVG/1.1/DTD/svg11.dtd">
<svg xmlns="http://www.w3.org/2000/svg" version="1.1" width="1536px" height="1024px" style="shape-rendering:geometricPrecision; text-rendering:geometricPrecision; image-rendering:optimizeQuality; fill-rule:evenodd; clip-rule:evenodd" xmlns:xlink="http://www.w3.org/1999/xlink">
<g><path style="opacity:1" fill="#fdfdfd" d="M -0.5,-0.5 C 511.5,-0.5 1023.5,-0.5 1535.5,-0.5C 1535.5,340.833 1535.5,682.167 1535.5,1023.5C 1023.5,1023.5 511.5,1023.5 -0.5,1023.5C -0.5,682.167 -0.5,340.833 -0.5,-0.5 Z"/></g>
<g><path style="opacity:1" fill="#f5893d" d="M 844.5,241.5 C 843.732,242.263 843.232,243.263 843,244.5C 841.657,243.786 840.324,244.12 839,245.5C 826.906,243.255 814.739,241.422 802.5,240C 802.034,238.701 802.034,237.201 802.5,235.5C 808.49,227.553 816.49,224.387 826.5,226C 835.474,227.813 841.474,232.98 844.5,241.5 Z"/></g>
<g><path style="opacity:1" fill="#f3813f" d="M 802.5,235.5 C 802.034,237.201 802.034,238.701 802.5,240C 814.739,241.422 826.906,243.255 839,245.5C 840.324,244.12 841.657,243.786 843,244.5C 843.232,243.263 843.732,242.263 844.5,241.5C 846.511,245.609 846.844,249.942 845.5,254.5C 844.819,252.842 843.985,251.175 843,249.5C 842.667,249.833 842.333,250.167 842,250.5C 836.363,249.167 830.696,247.834 825,246.5C 817.802,245.937 810.469,245.937 803,246.5C 801.357,245.685 799.857,244.685 798.5,243.5C 798.948,240.318 800.282,237.651 802.5,235.5 Z"/></g>
<g><path style="opacity:1" fill="#f17545" d="M 798.5,243.5 C 799.857,244.685 801.357,245.685 803,246.5C 810.469,245.937 817.802,245.937 825,246.5C 830.696,247.834 836.363,249.167 842,250.5C 842.333,250.167 842.667,249.833 843,249.5C 843.985,251.175 844.819,252.842 845.5,254.5C 844.677,257.48 843.343,260.147 841.5,262.5C 838.489,262.173 835.989,260.839 834,258.5C 830.542,258.938 827.209,258.938 824,258.5C 819.078,256.068 814.078,254.735 809,254.5C 807.105,254.615 805.438,255.282 804,256.5C 802.275,255.536 800.441,254.869 798.5,254.5C 797.272,250.816 797.272,247.15 798.5,243.5 Z"/></g>
<g><path style="opacity:1" fill="#ef6d4c" d="M 798.5,254.5 C 800.441,254.869 802.275,255.536 804,256.5C 805.438,255.282 807.105,254.615 809,254.5C 814.078,254.735 819.078,256.068 824,258.5C 827.209,258.938 830.542,258.938 834,258.5C 835.989,260.839 838.489,262.173 841.5,262.5C 840.797,264.716 839.464,266.549 837.5,268C 832.448,271.839 826.782,273.339 820.5,272.5C 818.516,272.617 816.85,271.95 815.5,270.5C 814.583,271.127 813.583,271.461 812.5,271.5C 810.534,270.559 808.534,269.559 806.5,268.5C 805.482,269.193 804.482,269.859 803.5,270.5C 801.978,269.809 800.978,268.642 800.5,267C 801.693,264.676 801.693,262.51 800.5,260.5C 799.637,258.579 798.971,256.579 798.5,254.5 Z"/></g>
<g><path style="opacity:1" fill="#e16759" d="M 800.5,260.5 C 801.693,262.51 801.693,264.676 800.5,267C 800.978,268.642 801.978,269.809 803.5,270.5C 802.109,272.89 800.109,274.557 797.5,275.5C 796.811,274.226 795.977,274.226 795,275.5C 794.667,273.833 794.333,272.167 794,270.5C 793.23,271.598 792.397,271.598 791.5,270.5C 795.205,267.795 798.205,264.462 800.5,260.5 Z"/></g>
<g><path style="opacity:1" fill="#fdfcfc" d="M 812.5,271.5 C 810.476,275.577 809.476,279.91 809.5,284.5C 808.475,287.974 807.808,291.64 807.5,295.5C 806.167,306.833 806.167,318.167 807.5,329.5C 807.59,331.696 807.923,333.863 808.5,336C 807.833,338.151 806.5,339.651 804.5,340.5C 801.802,340.845 799.802,342.178 798.5,344.5C 797.833,344.5 797.5,344.833 797.5,345.5C 783.114,333.646 767.281,323.979 750,316.5C 749.173,312.459 749.34,308.459 750.5,304.5C 754.376,303.058 758.043,301.391 761.5,299.5C 767.826,296.672 773.826,293.339 779.5,289.5C 781.909,288.299 783.909,286.633 785.5,284.5C 790.071,282.262 794.071,279.262 797.5,275.5C 800.109,274.557 802.109,272.89 803.5,270.5C 804.482,269.859 805.482,269.193 806.5,268.5C 808.534,269.559 810.534,270.559 812.5,271.5 Z"/></g>
<g><path style="opacity:1" fill="#d65e65" d="M 791.5,270.5 C 792.397,271.598 793.23,271.598 794,270.5C 794.333,272.167 794.667,273.833 795,275.5C 795.977,274.226 796.811,274.226 797.5,275.5C 794.071,279.262 790.071,282.262 785.5,284.5C 782.567,283.568 780.567,281.568 779.5,278.5C 783.246,275.415 787.246,272.749 791.5,270.5 Z"/></g>
<g><path style="opacity:1" fill="#e46153" d="M 820.5,272.5 C 819.5,277.832 818.5,283.165 817.5,288.5C 816.542,288.047 815.708,287.381 815,286.5C 814.072,289.035 812.238,290.035 809.5,289.5C 809.5,287.833 809.5,286.167 809.5,284.5C 809.476,279.91 810.476,275.577 812.5,271.5C 813.583,271.461 814.583,271.127 815.5,270.5C 816.85,271.95 818.516,272.617 820.5,272.5 Z"/></g>
<g><path style="opacity:1" fill="#cd5877" d="M 779.5,278.5 C 780.567,281.568 782.567,283.568 785.5,284.5C 783.909,286.633 781.909,288.299 779.5,289.5C 777.171,287.523 774.837,285.523 772.5,283.5C 774.619,281.6 776.953,279.934 779.5,278.5 Z"/></g>
<g><path style="opacity:1" fill="#8256a3" d="M 723.5,286.5 C 723.423,287.75 722.756,288.583 721.5,289C 723.342,290.346 724.342,292.179 724.5,294.5C 722.856,294.81 721.856,295.81 721.5,297.5C 717.8,301.535 713.8,305.202 709.5,308.5C 707.871,307.375 706.371,306.041 705,304.5C 703.711,307.351 703.211,310.351 703.5,313.5C 701.811,303.781 705.144,295.948 713.5,290C 716.561,287.965 719.895,286.799 723.5,286.5 Z"/></g>
<g><path style="opacity:1" fill="#b4528c" d="M 772.5,283.5 C 774.837,285.523 777.171,287.523 779.5,289.5C 773.826,293.339 767.826,296.672 761.5,299.5C 760.391,298.71 759.058,298.21 757.5,298C 757.833,297.667 758.167,297.333 758.5,297C 757.186,296.015 756.186,294.848 755.5,293.5C 760.967,289.929 766.633,286.596 772.5,283.5 Z"/></g>
<g><path style="opacity:1" fill="#d65a61" d="M 809.5,284.5 C 809.5,286.167 809.5,287.833 809.5,289.5C 812.238,290.035 814.072,289.035 815,286.5C 815.708,287.381 816.542,288.047 817.5,288.5C 816.103,294.07 815.437,299.736 815.5,305.5C 812.833,305.167 810.167,304.833 807.5,304.5C 807.5,301.5 807.5,298.5 807.5,295.5C 807.808,291.64 808.475,287.974 809.5,284.5 Z"/></g>
<g><path style="opacity:1" fill="#8b499d" d="M 724.5,294.5 C 729.909,302.978 735.576,311.311 741.5,319.5C 742.729,320.281 744.062,320.781 745.5,321C 744.663,322.011 744.33,323.178 744.5,324.5C 743.738,326.262 742.404,327.262 740.5,327.5C 735.992,325.836 732.492,322.836 730,318.5C 728.627,315.588 727.127,312.754 725.5,310C 726.167,308.667 726.833,307.333 727.5,306C 725.28,303.287 723.28,300.454 721.5,297.5C 721.856,295.81 722.856,294.81 724.5,294.5 Z"/></g>
<g><path style="opacity:1" fill="#984c96" d="M 723.5,286.5 C 726.85,286.335 730.183,286.502 733.5,287C 738.588,289.436 743.088,292.603 747,296.5C 749.705,295.061 752.538,294.061 755.5,293.5C 756.186,294.848 757.186,296.015 758.5,297C 758.167,297.333 757.833,297.667 757.5,298C 759.058,298.21 760.391,298.71 761.5,299.5C 758.043,301.391 754.376,303.058 750.5,304.5C 749.34,308.459 749.173,312.459 750,316.5C 767.281,323.979 783.114,333.646 797.5,345.5C 797.5,345.833 797.5,346.167 797.5,346.5C 795.595,348.049 795.261,349.882 796.5,352C 795.552,352.483 794.552,352.649 793.5,352.5C 792.658,357.787 792.324,363.12 792.5,368.5C 791.391,366.414 790.724,364.08 790.5,361.5C 792.462,357.097 791.795,353.263 788.5,350C 774.964,339.648 760.297,331.148 744.5,324.5C 744.33,323.178 744.663,322.011 745.5,321C 744.062,320.781 742.729,320.281 741.5,319.5C 735.576,311.311 729.909,302.978 724.5,294.5C 724.342,292.179 723.342,290.346 721.5,289C 722.756,288.583 723.423,287.75 723.5,286.5 Z"/></g>
<g><path style="opacity:1" fill="#7e499f" d="M 721.5,297.5 C 723.28,300.454 725.28,303.287 727.5,306C 726.833,307.333 726.167,308.667 725.5,310C 727.127,312.754 728.627,315.588 730,318.5C 732.492,322.836 735.992,325.836 740.5,327.5C 739.198,329.822 737.198,331.155 734.5,331.5C 728.333,330.932 722.333,329.432 716.5,327C 713.172,321.184 710.839,315.017 709.5,308.5C 713.8,305.202 717.8,301.535 721.5,297.5 Z"/></g>
<g><path style="opacity:1" fill="#754da0" d="M 709.5,308.5 C 710.839,315.017 713.172,321.184 716.5,327C 722.333,329.432 728.333,330.932 734.5,331.5C 722.867,335.208 713.367,332.208 706,322.5C 704.57,319.647 703.737,316.647 703.5,313.5C 703.211,310.351 703.711,307.351 705,304.5C 706.371,306.041 707.871,307.375 709.5,308.5 Z"/></g>
<g><path style="opacity:1" fill="#c76084" d="M 807.5,295.5 C 807.5,298.5 807.5,301.5 807.5,304.5C 810.167,304.833 812.833,305.167 815.5,305.5C 815.5,309.833 815.5,314.167 815.5,318.5C 813.386,317.093 811.886,315.093 811,312.5C 810.333,313.833 809.667,313.833 809,312.5C 808.667,311.5 808.333,310.5 808,309.5C 807.5,316.158 807.334,322.825 807.5,329.5C 806.167,318.167 806.167,306.833 807.5,295.5 Z"/></g>
<g><path style="opacity:1" fill="#e9665c" d="M 947.5,326.5 C 946.442,327.6 945.608,328.934 945,330.5C 943.956,329.377 943.29,328.044 943,326.5C 940.333,326.5 937.667,326.5 935,326.5C 930.481,323.083 925.315,321.583 919.5,322C 920.5,321.667 921.5,321.333 922.5,321C 920.188,315.172 915.855,312.339 909.5,312.5C 919.279,310.585 929.279,310.085 939.5,311C 945.854,314.21 948.521,319.377 947.5,326.5 Z"/></g>
<g><path style="opacity:1" fill="#1f99c3" d="M 638.5,315.5 C 636.54,316.138 634.707,316.138 633,315.5C 630.913,316.794 628.746,317.961 626.5,319C 626.833,319.333 627.167,319.667 627.5,320C 626.167,320.667 624.833,321.333 623.5,322C 624.167,322.333 624.833,322.667 625.5,323C 623.292,323.191 621.292,323.691 619.5,324.5C 614.167,324.5 608.833,324.5 603.5,324.5C 602.707,339.362 601.374,354.028 599.5,368.5C 599.949,362.648 599.449,356.981 598,351.5C 597.667,352.167 597.333,352.833 597,353.5C 595.867,351.789 594.367,351.289 592.5,352C 588.499,355.484 585.166,359.317 582.5,363.5C 583.452,348.119 584.952,332.786 587,317.5C 588.99,313.51 592.157,311.01 596.5,310C 610.973,309.254 624.973,311.087 638.5,315.5 Z"/></g>
<g><path style="opacity:1" fill="#3390be" d="M 638.5,315.5 C 648.065,317.688 657.398,320.688 666.5,324.5C 665.909,325.151 665.243,325.818 664.5,326.5C 660.252,327.468 656.252,328.801 652.5,330.5C 641.655,327.663 630.655,325.663 619.5,324.5C 621.292,323.691 623.292,323.191 625.5,323C 624.833,322.667 624.167,322.333 623.5,322C 624.833,321.333 626.167,320.667 627.5,320C 627.167,319.667 626.833,319.333 626.5,319C 628.746,317.961 630.913,316.794 633,315.5C 634.707,316.138 636.54,316.138 638.5,315.5 Z"/></g>
<g><path style="opacity:1" fill="#e55e5d" d="M 909.5,312.5 C 915.855,312.339 920.188,315.172 922.5,321C 921.5,321.333 920.5,321.667 919.5,322C 925.315,321.583 930.481,323.083 935,326.5C 937.667,326.5 940.333,326.5 943,326.5C 943.29,328.044 943.956,329.377 945,330.5C 945.608,328.934 946.442,327.6 947.5,326.5C 947.5,328.167 947.5,329.833 947.5,331.5C 947.66,333.199 947.494,334.866 947,336.5C 944.566,335.368 942.066,334.368 939.5,333.5C 937.777,334.552 936.11,334.552 934.5,333.5C 933.522,333.977 932.689,334.643 932,335.5C 931.722,334.584 931.222,333.918 930.5,333.5C 930.296,330.482 929.963,327.482 929.5,324.5C 918.427,324.218 907.427,324.884 896.5,326.5C 894.436,326.313 892.436,325.813 890.5,325C 893.037,322.175 892.37,320.009 888.5,318.5C 886.218,319.223 883.884,319.557 881.5,319.5C 890.34,315.623 899.674,313.29 909.5,312.5 Z"/></g>
<g><path style="opacity:1" fill="#de5a6b" d="M 896.5,326.5 C 887.654,328.963 878.654,331.296 869.5,333.5C 869.577,332.25 870.244,331.417 871.5,331C 869.311,330.323 868.978,329.156 870.5,327.5C 868.709,326.83 867.042,326.163 865.5,325.5C 870.608,322.908 875.941,320.908 881.5,319.5C 883.884,319.557 886.218,319.223 888.5,318.5C 892.37,320.009 893.037,322.175 890.5,325C 892.436,325.813 894.436,326.313 896.5,326.5 Z"/></g>
<g><path style="opacity:1" fill="#fdfdfd" d="M 619.5,324.5 C 630.655,325.663 641.655,327.663 652.5,330.5C 665.688,334.456 678.355,339.789 690.5,346.5C 703.035,353.265 714.702,361.265 725.5,370.5C 736.494,380.161 747.161,390.161 757.5,400.5C 758.713,403.225 760.546,405.559 763,407.5C 763.5,423.163 763.667,438.83 763.5,454.5C 763.667,486.835 763.5,519.168 763,551.5C 759.664,547.332 756.164,543.332 752.5,539.5C 740.246,526.243 726.246,515.243 710.5,506.5C 698.31,499.099 685.31,493.432 671.5,489.5C 660.55,485.706 649.216,483.039 637.5,481.5C 632.38,480.203 627.046,479.369 621.5,479C 610.839,478.5 600.172,478.333 589.5,478.5C 589.942,474.846 590.276,471.179 590.5,467.5C 592.629,452.055 593.962,436.388 594.5,420.5C 596.016,406.652 597.349,392.652 598.5,378.5C 599.479,375.375 599.813,372.042 599.5,368.5C 601.374,354.028 602.707,339.362 603.5,324.5C 608.833,324.5 614.167,324.5 619.5,324.5 Z"/></g>
<g><path style="opacity:1" fill="#4288b7" d="M 666.5,324.5 C 676.684,329.088 686.351,334.421 695.5,340.5C 694.167,340.5 692.833,340.5 691.5,340.5C 691.167,342.5 690.833,344.5 690.5,346.5C 678.355,339.789 665.688,334.456 652.5,330.5C 656.252,328.801 660.252,327.468 664.5,326.5C 665.243,325.818 665.909,325.151 666.5,324.5 Z"/></g>
<g><path style="opacity:1" fill="#d55873" d="M 865.5,325.5 C 867.042,326.163 868.709,326.83 870.5,327.5C 868.978,329.156 869.311,330.323 871.5,331C 870.244,331.417 869.577,332.25 869.5,333.5C 860.864,337.159 852.197,340.826 843.5,344.5C 843.617,342.516 842.95,340.85 841.5,339.5C 841.709,338.914 842.043,338.414 842.5,338C 849.901,333.3 857.568,329.134 865.5,325.5 Z"/></g>
<g><path style="opacity:1" fill="#b64b85" d="M 815.5,318.5 C 815.612,325.18 815.946,331.847 816.5,338.5C 826.467,339.145 833.133,344.145 836.5,353.5C 835.07,353.421 833.736,353.754 832.5,354.5C 831.614,353.675 831.281,352.675 831.5,351.5C 825.955,350.061 820.621,348.061 815.5,345.5C 813.833,343.5 812.167,341.5 810.5,339.5C 808.591,340.348 806.591,340.682 804.5,340.5C 806.5,339.651 807.833,338.151 808.5,336C 807.923,333.863 807.59,331.696 807.5,329.5C 807.334,322.825 807.5,316.158 808,309.5C 808.333,310.5 808.667,311.5 809,312.5C 809.667,313.833 810.333,313.833 811,312.5C 811.886,315.093 813.386,317.093 815.5,318.5 Z"/></g>
<g><path style="opacity:1" fill="#de5b6c" d="M 947.5,331.5 C 948.755,338.3 949.422,345.3 949.5,352.5C 948.842,351.602 948.176,350.602 947.5,349.5C 943.099,350.989 938.599,351.989 934,352.5C 933.667,351.833 933.333,351.167 933,350.5C 932.505,352.473 932.338,354.473 932.5,356.5C 931.238,349.031 930.571,341.365 930.5,333.5C 931.222,333.918 931.722,334.584 932,335.5C 932.689,334.643 933.522,333.977 934.5,333.5C 936.11,334.552 937.777,334.552 939.5,333.5C 942.066,334.368 944.566,335.368 947,336.5C 947.494,334.866 947.66,333.199 947.5,331.5 Z"/></g>
<g><path style="opacity:1" fill="#b34b8d" d="M 836.5,353.5 C 837.926,355.679 838.592,358.179 838.5,361C 838.492,362.707 838.158,364.207 837.5,365.5C 837.323,358.866 836.823,358.866 836,365.5C 835.333,362.833 834.667,360.167 834,357.5C 832.579,360.622 830.913,360.956 829,358.5C 827.636,359.258 826.469,358.758 825.5,357C 817.572,355.039 810.905,351.039 805.5,345C 803.19,344.503 800.857,344.337 798.5,344.5C 799.802,342.178 801.802,340.845 804.5,340.5C 806.591,340.682 808.591,340.348 810.5,339.5C 812.167,341.5 813.833,343.5 815.5,345.5C 820.621,348.061 825.955,350.061 831.5,351.5C 831.281,352.675 831.614,353.675 832.5,354.5C 833.736,353.754 835.07,353.421 836.5,353.5 Z"/></g>
<g><path style="opacity:1" fill="#cb567d" d="M 985.5,377.5 C 985.225,379.758 984.225,380.092 982.5,378.5C 981.522,378.977 980.689,379.643 980,380.5C 977.781,378.28 975.281,376.447 972.5,375C 970.449,369.191 968.783,369.358 967.5,375.5C 966.064,366.906 965.064,358.24 964.5,349.5C 974.862,349.587 981.362,354.587 984,364.5C 984.735,368.813 985.235,373.147 985.5,377.5 Z"/></g>
<g><path style="opacity:1" fill="#547caf" d="M 695.5,340.5 C 704.002,345.59 712.002,351.424 719.5,358C 723.037,361.369 726.371,364.869 729.5,368.5C 727.62,368.229 726.287,368.896 725.5,370.5C 714.702,361.265 703.035,353.265 690.5,346.5C 690.833,344.5 691.167,342.5 691.5,340.5C 692.833,340.5 694.167,340.5 695.5,340.5 Z"/></g>
<g><path style="opacity:1" fill="#d35272" d="M 949.5,352.5 C 950.43,356.4 950.763,360.4 950.5,364.5C 950.649,365.552 950.483,366.552 950,367.5C 949.808,365.423 949.308,363.423 948.5,361.5C 945.903,365.887 942.569,366.887 938.5,364.5C 937.23,365.562 936.063,366.562 935,367.5C 934.768,366.263 934.268,365.263 933.5,364.5C 932.527,362.052 932.194,359.385 932.5,356.5C 932.338,354.473 932.505,352.473 933,350.5C 933.333,351.167 933.667,351.833 934,352.5C 938.599,351.989 943.099,350.989 947.5,349.5C 948.176,350.602 948.842,351.602 949.5,352.5 Z"/></g>
<g><path style="opacity:1" fill="#9e4295" d="M 797.5,346.5 C 800.625,348.456 803.291,350.956 805.5,354C 808.5,355 811.5,356 814.5,357C 821.208,362.346 828.208,367.179 835.5,371.5C 832.836,378.32 827.836,382.487 820.5,384C 806.953,386.26 797.62,381.093 792.5,368.5C 792.324,363.12 792.658,357.787 793.5,352.5C 794.552,352.649 795.552,352.483 796.5,352C 795.261,349.882 795.595,348.049 797.5,346.5 Z"/></g>
<g><path style="opacity:1" fill="#ab458f" d="M 798.5,344.5 C 800.857,344.337 803.19,344.503 805.5,345C 810.905,351.039 817.572,355.039 825.5,357C 826.469,358.758 827.636,359.258 829,358.5C 830.913,360.956 832.579,360.622 834,357.5C 834.667,360.167 835.333,362.833 836,365.5C 836.823,358.866 837.323,358.866 837.5,365.5C 837.405,367.786 836.738,369.786 835.5,371.5C 828.208,367.179 821.208,362.346 814.5,357C 811.5,356 808.5,355 805.5,354C 803.291,350.956 800.625,348.456 797.5,346.5C 797.5,346.167 797.5,345.833 797.5,345.5C 797.5,344.833 797.833,344.5 798.5,344.5 Z"/></g>
<g><path style="opacity:1" fill="#288abc" d="M 599.5,368.5 C 599.813,372.042 599.479,375.375 598.5,378.5C 598.279,375.903 597.779,375.903 597,378.5C 596.586,378.043 596.086,377.709 595.5,377.5C 593.527,378.64 591.693,379.973 590,381.5C 588.984,380.366 588.317,380.699 588,382.5C 585.541,381.351 583.041,381.351 580.5,382.5C 580.81,376.082 581.477,369.749 582.5,363.5C 585.166,359.317 588.499,355.484 592.5,352C 594.367,351.289 595.867,351.789 597,353.5C 597.333,352.833 597.667,352.167 598,351.5C 599.449,356.981 599.949,362.648 599.5,368.5 Z"/></g>
<g><path style="opacity:1" fill="#c94f79" d="M 950.5,364.5 C 951.518,369.984 952.184,375.651 952.5,381.5C 951.542,381.953 950.708,382.619 950,383.5C 946.34,381.473 942.673,380.14 939,379.5C 938,380.5 937,381.5 936,382.5C 935.768,381.263 935.268,380.263 934.5,379.5C 933.555,374.595 933.221,369.595 933.5,364.5C 934.268,365.263 934.768,366.263 935,367.5C 936.063,366.562 937.23,365.562 938.5,364.5C 942.569,366.887 945.903,365.887 948.5,361.5C 949.308,363.423 949.808,365.423 950,367.5C 950.483,366.552 950.649,365.552 950.5,364.5 Z"/></g>
<g><path style="opacity:1" fill="#1694c2" d="M 562.5,401.5 C 562.543,397.107 562.043,396.774 561,400.5C 560.86,397.957 560.194,395.623 559,393.5C 558.667,393.833 558.333,394.167 558,394.5C 555.686,391.592 552.853,390.925 549.5,392.5C 550.19,388.51 550.357,384.51 550,380.5C 549.329,379.748 548.496,379.414 547.5,379.5C 548.727,373.231 549.561,366.898 550,360.5C 553.785,352.891 559.952,349.224 568.5,349.5C 567.139,367.044 565.139,384.378 562.5,401.5 Z"/></g>
<g><path style="opacity:1" fill="#c55487" d="M 985.5,377.5 C 987.136,383.603 988.136,389.936 988.5,396.5C 984.078,389.854 978.578,388.521 972,392.5C 971.667,391.167 971.333,389.833 971,388.5C 970.503,391.146 970.336,393.813 970.5,396.5C 969.105,389.692 968.105,382.692 967.5,375.5C 968.783,369.358 970.449,369.191 972.5,375C 975.281,376.447 977.781,378.28 980,380.5C 980.689,379.643 981.522,378.977 982.5,378.5C 984.225,380.092 985.225,379.758 985.5,377.5 Z"/></g>
<g><path style="opacity:1" fill="#5f66a9" d="M 729.5,368.5 C 739.774,378.408 749.107,389.075 757.5,400.5C 747.161,390.161 736.494,380.161 725.5,370.5C 726.287,368.896 727.62,368.229 729.5,368.5 Z"/></g>
<g><path style="opacity:1" fill="#bf4c84" d="M 934.5,379.5 C 935.268,380.263 935.768,381.263 936,382.5C 937,381.5 938,380.5 939,379.5C 942.673,380.14 946.34,381.473 950,383.5C 950.708,382.619 951.542,381.953 952.5,381.5C 953.233,388.493 953.899,395.493 954.5,402.5C 953.698,403.952 953.198,405.618 953,407.5C 949.215,405.89 945.548,403.89 942,401.5C 940.765,402.615 939.598,402.615 938.5,401.5C 937.548,403.045 937.215,404.712 937.5,406.5C 936.21,397.673 935.21,388.673 934.5,379.5 Z"/></g>
<g><path style="opacity:1" fill="#9866a2" d="M 770.5,552.5 C 769.833,504.167 769.167,455.833 768.5,407.5C 774.959,399.871 781.625,392.371 788.5,385C 789.483,384.409 790.15,384.743 790.5,386C 783.657,392.509 777.157,399.343 771,406.5C 770.5,455.166 770.333,503.832 770.5,552.5 Z"/></g>
<g><path style="opacity:1" fill="#be4d8c" d="M 988.5,396.5 C 989.085,402.178 989.751,407.845 990.5,413.5C 988.839,411.672 987.172,409.672 985.5,407.5C 982.781,408.255 980.281,407.589 978,405.5C 976.295,406.763 974.628,407.097 973,406.5C 972.51,407.793 972.343,409.127 972.5,410.5C 971.479,406.02 970.813,401.353 970.5,396.5C 970.336,393.813 970.503,391.146 971,388.5C 971.333,389.833 971.667,391.167 972,392.5C 978.578,388.521 984.078,389.854 988.5,396.5 Z"/></g>
<g><path style="opacity:1" fill="#2c7bb6" d="M 598.5,378.5 C 597.349,392.652 596.016,406.652 594.5,420.5C 593.678,418.611 592.845,416.611 592,414.5C 590.688,416.658 589.022,416.991 587,415.5C 585.045,416.453 583.378,417.787 582,419.5C 581.667,419.167 581.333,418.833 581,418.5C 580.579,422.872 579.912,427.205 579,431.5C 578.155,429.389 577.322,427.389 576.5,425.5C 577.713,411.152 579.047,396.818 580.5,382.5C 583.041,381.351 585.541,381.351 588,382.5C 588.317,380.699 588.984,380.366 590,381.5C 591.693,379.973 593.527,378.64 595.5,377.5C 596.086,377.709 596.586,378.043 597,378.5C 597.779,375.903 598.279,375.903 598.5,378.5 Z"/></g>
<g><path style="opacity:1" fill="#1c88bc" d="M 547.5,379.5 C 548.496,379.414 549.329,379.748 550,380.5C 550.357,384.51 550.19,388.51 549.5,392.5C 552.853,390.925 555.686,391.592 558,394.5C 558.333,394.167 558.667,393.833 559,393.5C 560.194,395.623 560.86,397.957 561,400.5C 562.043,396.774 562.543,397.107 562.5,401.5C 561.573,411.841 560.573,422.174 559.5,432.5C 558.883,432.389 558.383,432.056 558,431.5C 558.064,420.076 556.731,419.743 554,430.5C 553.667,429.167 553.333,427.833 553,426.5C 550.755,428.792 548.255,429.125 545.5,427.5C 544.971,425.216 543.971,423.216 542.5,421.5C 543.675,407.436 545.341,393.436 547.5,379.5 Z"/></g>
<g><path style="opacity:1" fill="#bb4c8d" d="M 954.5,402.5 C 955.707,409.639 956.374,416.972 956.5,424.5C 955.778,424.082 955.278,423.416 955,422.5C 951.953,425.803 950.786,425.803 951.5,422.5C 950.164,419.528 948.664,419.195 947,421.5C 944.463,415.86 942.963,416.194 942.5,422.5C 943.891,424.936 943.391,425.602 941,424.5C 939.798,426.677 939.298,429.011 939.5,431.5C 938.131,423.37 937.464,415.037 937.5,406.5C 937.215,404.712 937.548,403.045 938.5,401.5C 939.598,402.615 940.765,402.615 942,401.5C 945.548,403.89 949.215,405.89 953,407.5C 953.198,405.618 953.698,403.952 954.5,402.5 Z"/></g>
<g><path style="opacity:1" fill="#3272b0" d="M 594.5,420.5 C 593.962,436.388 592.629,452.055 590.5,467.5C 590.323,460.866 589.823,460.866 589,467.5C 588.667,466.5 588.333,465.5 588,464.5C 587.333,465.833 586.667,467.167 586,468.5C 585.811,464.83 584.977,461.33 583.5,458C 583.946,456.274 584.779,454.774 586,453.5C 587.981,434.837 586.647,434.837 582,453.5C 580.193,455.694 577.86,457.027 575,457.5C 574.802,459.382 574.302,461.048 573.5,462.5C 574.079,450.127 575.079,437.794 576.5,425.5C 577.322,427.389 578.155,429.389 579,431.5C 579.912,427.205 580.579,422.872 581,418.5C 581.333,418.833 581.667,419.167 582,419.5C 583.378,417.787 585.045,416.453 587,415.5C 589.022,416.991 590.688,416.658 592,414.5C 592.845,416.611 593.678,418.611 594.5,420.5 Z"/></g>
<g><path style="opacity:1" fill="#b2458e" d="M 990.5,413.5 C 991.992,422.774 992.992,432.107 993.5,441.5C 990.423,434.077 985.089,428.411 977.5,424.5C 976.749,423.624 976.249,422.624 976,421.5C 975.667,422.167 975.333,422.833 975,423.5C 974.802,421.618 974.302,419.952 973.5,418.5C 972.527,416.052 972.194,413.385 972.5,410.5C 972.343,409.127 972.51,407.793 973,406.5C 974.628,407.097 976.295,406.763 978,405.5C 980.281,407.589 982.781,408.255 985.5,407.5C 987.172,409.672 988.839,411.672 990.5,413.5 Z"/></g>
<g><path style="opacity:1" fill="#5c539a" d="M 757.5,400.5 C 760.297,402.795 762.964,405.295 765.5,408C 766.577,408.47 767.577,408.303 768.5,407.5C 768.666,417.839 768.5,428.172 768,438.5C 766.415,437.624 765.415,436.291 765,434.5C 764.828,441.346 764.328,448.013 763.5,454.5C 763.667,438.83 763.5,423.163 763,407.5C 760.546,405.559 758.713,403.225 757.5,400.5 Z"/></g>
<g><path style="opacity:1" fill="#b24590" d="M 956.5,424.5 C 957.493,430.084 958.159,435.751 958.5,441.5C 956.571,445.199 955.404,444.532 955,439.5C 951.234,440.187 947.401,440.354 943.5,440C 942.922,441.417 941.922,442.25 940.5,442.5C 940.276,438.821 939.942,435.154 939.5,431.5C 939.298,429.011 939.798,426.677 941,424.5C 943.391,425.602 943.891,424.936 942.5,422.5C 942.963,416.194 944.463,415.86 947,421.5C 948.664,419.195 950.164,419.528 951.5,422.5C 950.786,425.803 951.953,425.803 955,422.5C 955.278,423.416 955.778,424.082 956.5,424.5 Z"/></g>
<g><path style="opacity:1" fill="#2683bd" d="M 542.5,421.5 C 543.971,423.216 544.971,425.216 545.5,427.5C 548.255,429.125 550.755,428.792 553,426.5C 553.333,427.833 553.667,429.167 554,430.5C 556.731,419.743 558.064,420.076 558,431.5C 558.383,432.056 558.883,432.389 559.5,432.5C 559.468,437.391 558.801,442.057 557.5,446.5C 558.244,443.05 556.91,441.384 553.5,441.5C 553.5,442.5 553.5,443.5 553.5,444.5C 546.895,444.211 542.729,447.211 541,453.5C 540.329,452.748 539.496,452.414 538.5,452.5C 539.408,441.974 540.741,431.641 542.5,421.5 Z"/></g>
<g><path style="opacity:1" fill="#a64290" d="M 973.5,418.5 C 974.302,419.952 974.802,421.618 975,423.5C 975.333,422.833 975.667,422.167 976,421.5C 976.249,422.624 976.749,423.624 977.5,424.5C 985.089,428.411 990.423,434.077 993.5,441.5C 994.451,442.919 994.784,444.585 994.5,446.5C 993.691,448.292 993.191,450.292 993,452.5C 992.667,452.167 992.333,451.833 992,451.5C 991.71,453.044 991.044,454.377 990,455.5C 987.781,452.639 984.947,450.639 981.5,449.5C 980.749,450.376 980.249,451.376 980,452.5C 979.586,452.043 979.086,451.709 978.5,451.5C 978.326,456.702 978.326,462.036 978.5,467.5C 975.944,451.4 974.277,435.067 973.5,418.5 Z"/></g>
<g><path style="opacity:1" fill="#a14091" d="M 958.5,441.5 C 959.268,449.823 959.935,458.156 960.5,466.5C 959.328,469.69 958.328,473.023 957.5,476.5C 955.418,476.528 953.584,475.861 952,474.5C 951.667,474.833 951.333,475.167 951,475.5C 949.333,473.833 947.667,472.167 946,470.5C 945.963,472.974 945.13,474.974 943.5,476.5C 943.806,473.615 943.473,470.948 942.5,468.5C 942.052,459.814 941.385,451.148 940.5,442.5C 941.922,442.25 942.922,441.417 943.5,440C 947.401,440.354 951.234,440.187 955,439.5C 955.404,444.532 956.571,445.199 958.5,441.5 Z"/></g>
<g><path style="opacity:1" fill="#3669ae" d="M 590.5,467.5 C 590.276,471.179 589.942,474.846 589.5,478.5C 600.172,478.333 610.839,478.5 621.5,479C 627.046,479.369 632.38,480.203 637.5,481.5C 635.516,481.383 633.85,482.05 632.5,483.5C 633.681,485.198 633.681,486.865 632.5,488.5C 631.264,487.754 629.93,487.421 628.5,487.5C 628.649,486.448 628.483,485.448 628,484.5C 627.667,484.833 627.333,485.167 627,485.5C 621.362,480.723 616.362,481.723 612,488.5C 611.275,487.941 610.442,487.608 609.5,487.5C 606.167,488.667 602.833,489.833 599.5,491C 598.185,492.395 598.519,493.395 600.5,494C 597.833,494.333 595.167,494.667 592.5,495C 600.344,495.171 608.011,495.671 615.5,496.5C 601.152,496.592 586.818,496.759 572.5,497C 571.148,494.706 570.481,492.206 570.5,489.5C 571.145,480.447 572.145,471.447 573.5,462.5C 574.302,461.048 574.802,459.382 575,457.5C 577.86,457.027 580.193,455.694 582,453.5C 586.647,434.837 587.981,434.837 586,453.5C 584.779,454.774 583.946,456.274 583.5,458C 584.977,461.33 585.811,464.83 586,468.5C 586.667,467.167 587.333,465.833 588,464.5C 588.333,465.5 588.667,466.5 589,467.5C 589.823,460.866 590.323,460.866 590.5,467.5 Z"/></g>
<g><path style="opacity:1" fill="#2d6db1" d="M 552.5,489.5 C 552.139,498.379 551.139,507.046 549.5,515.5C 549.657,514.127 549.49,512.793 549,511.5C 548.667,513.833 548.333,516.167 548,518.5C 546.442,517.655 545.442,518.321 545,520.5C 542.33,518.021 540.83,515.021 540.5,511.5C 537.5,512.833 534.5,514.167 531.5,515.5C 532.167,509.5 532.833,503.5 533.5,497.5C 537.111,497.361 539.777,495.694 541.5,492.5C 542.956,486.944 543.956,481.278 544.5,475.5C 546.071,474.691 547.738,474.357 549.5,474.5C 549.609,479.713 550.609,484.713 552.5,489.5 Z"/></g>
<g><path style="opacity:1" fill="#953f95" d="M 994.5,446.5 C 996.752,461.767 998.419,477.1 999.5,492.5C 998.289,495.782 997.122,499.116 996,502.5C 993.527,496.101 989.527,491.768 984,489.5C 983.878,491.437 983.045,492.77 981.5,493.5C 980.029,485.028 979.029,476.361 978.5,467.5C 978.326,462.036 978.326,456.702 978.5,451.5C 979.086,451.709 979.586,452.043 980,452.5C 980.249,451.376 980.749,450.376 981.5,449.5C 984.947,450.639 987.781,452.639 990,455.5C 991.044,454.377 991.71,453.044 992,451.5C 992.333,451.833 992.667,452.167 993,452.5C 993.191,450.292 993.691,448.292 994.5,446.5 Z"/></g>
<g><path style="opacity:1" fill="#2a73b4" d="M 557.5,446.5 C 556.415,461.04 554.748,475.374 552.5,489.5C 550.609,484.713 549.609,479.713 549.5,474.5C 547.738,474.357 546.071,474.691 544.5,475.5C 543.956,481.278 542.956,486.944 541.5,492.5C 539.777,495.694 537.111,497.361 533.5,497.5C 535.085,482.486 536.752,467.486 538.5,452.5C 539.496,452.414 540.329,452.748 541,453.5C 542.729,447.211 546.895,444.211 553.5,444.5C 553.5,443.5 553.5,442.5 553.5,441.5C 556.91,441.384 558.244,443.05 557.5,446.5 Z"/></g>
<g><path style="opacity:1" fill="#e3c5e1" d="M 942.5,468.5 C 943.473,470.948 943.806,473.615 943.5,476.5C 935.567,478.468 927.234,479.135 918.5,478.5C 926.316,477.508 934.316,477.174 942.5,477.5C 942.5,474.5 942.5,471.5 942.5,468.5 Z"/></g>
<g><path style="opacity:1" fill="#964296" d="M 960.5,466.5 C 962.612,476.696 962.778,487.03 961,497.5C 960.107,498.081 959.107,498.415 958,498.5C 952.259,497.009 946.426,496.343 940.5,496.5C 932.657,495.833 924.657,495.167 916.5,494.5C 912.071,492.907 907.738,491.074 903.5,489C 904.204,487.429 905.537,485.762 907.5,484C 910.28,483.63 912.28,482.63 913.5,481C 911.292,480.809 909.292,480.309 907.5,479.5C 911.135,478.886 914.802,478.552 918.5,478.5C 927.234,479.135 935.567,478.468 943.5,476.5C 945.13,474.974 945.963,472.974 946,470.5C 947.667,472.167 949.333,473.833 951,475.5C 951.333,475.167 951.667,474.833 952,474.5C 953.584,475.861 955.418,476.528 957.5,476.5C 958.328,473.023 959.328,469.69 960.5,466.5 Z"/></g>
<g><path style="opacity:1" fill="#4262a9" d="M 637.5,481.5 C 649.216,483.039 660.55,485.706 671.5,489.5C 670.624,489.369 669.957,489.702 669.5,490.5C 670.59,491.609 670.59,492.609 669.5,493.5C 665.984,494.756 662.984,496.756 660.5,499.5C 661.274,500.711 662.107,500.711 663,499.5C 663.236,501.811 664.069,503.811 665.5,505.5C 649.2,500.339 632.533,497.339 615.5,496.5C 608.011,495.671 600.344,495.171 592.5,495C 595.167,494.667 597.833,494.333 600.5,494C 598.519,493.395 598.185,492.395 599.5,491C 602.833,489.833 606.167,488.667 609.5,487.5C 610.442,487.608 611.275,487.941 612,488.5C 616.362,481.723 621.362,480.723 627,485.5C 627.333,485.167 627.667,484.833 628,484.5C 628.483,485.448 628.649,486.448 628.5,487.5C 629.93,487.421 631.264,487.754 632.5,488.5C 633.681,486.865 633.681,485.198 632.5,483.5C 633.85,482.05 635.516,481.383 637.5,481.5 Z"/></g>
<g><path style="opacity:1" fill="#8f489a" d="M 907.5,479.5 C 909.292,480.309 911.292,480.809 913.5,481C 912.28,482.63 910.28,483.63 907.5,484C 905.537,485.762 904.204,487.429 903.5,489C 907.738,491.074 912.071,492.907 916.5,494.5C 924.657,495.167 932.657,495.833 940.5,496.5C 929.815,496.39 919.148,496.723 908.5,497.5C 904.49,496.302 900.323,496.302 896,497.5C 892.678,497.244 889.678,496.244 887,494.5C 886.586,494.957 886.086,495.291 885.5,495.5C 881.508,491.014 876.508,488.514 870.5,488C 871.416,487.722 872.082,487.222 872.5,486.5C 883.854,483.158 895.52,480.824 907.5,479.5 Z"/></g>
<g><path style="opacity:1" fill="#824399" d="M 872.5,486.5 C 872.082,487.222 871.416,487.722 870.5,488C 876.508,488.514 881.508,491.014 885.5,495.5C 886.086,495.291 886.586,494.957 887,494.5C 889.678,496.244 892.678,497.244 896,497.5C 900.323,496.302 904.49,496.302 908.5,497.5C 891.732,498.794 875.399,502.127 859.5,507.5C 856.903,507.279 856.903,506.779 859.5,506C 856.833,505.333 856.833,504.667 859.5,504C 858.216,503.316 857.049,503.483 856,504.5C 855.021,502.68 853.521,501.513 851.5,501C 852.833,500.333 852.833,499.667 851.5,499C 848.099,499.266 846.433,497.766 846.5,494.5C 854.652,490.451 863.318,487.785 872.5,486.5 Z"/></g>
<g><path style="opacity:1" fill="#4956a4" d="M 671.5,489.5 C 685.31,493.432 698.31,499.099 710.5,506.5C 708.99,507.836 707.323,509.003 705.5,510C 705.957,510.414 706.291,510.914 706.5,511.5C 703.961,513.684 701.294,514.851 698.5,515C 700.623,515.815 702.623,516.815 704.5,518C 703.584,518.278 702.918,518.778 702.5,519.5C 690.486,513.993 678.153,509.327 665.5,505.5C 664.069,503.811 663.236,501.811 663,499.5C 662.107,500.711 661.274,500.711 660.5,499.5C 662.984,496.756 665.984,494.756 669.5,493.5C 670.59,492.609 670.59,491.609 669.5,490.5C 669.957,489.702 670.624,489.369 671.5,489.5 Z"/></g>
<g><path style="opacity:1" fill="#794599" d="M 846.5,494.5 C 846.433,497.766 848.099,499.266 851.5,499C 852.833,499.667 852.833,500.333 851.5,501C 853.521,501.513 855.021,502.68 856,504.5C 857.049,503.483 858.216,503.316 859.5,504C 856.833,504.667 856.833,505.333 859.5,506C 856.903,506.779 856.903,507.279 859.5,507.5C 848.503,511.175 837.836,515.841 827.5,521.5C 827.64,519.876 826.973,518.71 825.5,518C 826.584,515.81 825.917,514.144 823.5,513C 823.833,512.667 824.167,512.333 824.5,512C 822.519,511.395 822.185,510.395 823.5,509C 822.207,508.51 820.873,508.343 819.5,508.5C 828.021,503.072 837.021,498.405 846.5,494.5 Z"/></g>
<g><path style="opacity:1" fill="#3065b0" d="M 549.5,515.5 C 549.5,516.833 549.5,518.167 549.5,519.5C 559.126,518.134 568.793,517.134 578.5,516.5C 579.609,517.29 580.942,517.79 582.5,518C 581.5,518.333 580.5,518.667 579.5,519C 579.833,519.333 580.167,519.667 580.5,520C 579.707,521.085 579.04,522.252 578.5,523.5C 578.653,526.11 579.986,528.443 582.5,530.5C 579.617,532.821 576.283,533.988 572.5,534C 576.486,534.499 580.486,534.666 584.5,534.5C 570.147,535.489 555.814,537.656 541.5,541C 534.043,543.613 530.043,541.113 529.5,533.5C 530.168,527.49 530.834,521.49 531.5,515.5C 534.5,514.167 537.5,512.833 540.5,511.5C 540.83,515.021 542.33,518.021 545,520.5C 545.442,518.321 546.442,517.655 548,518.5C 548.333,516.167 548.667,513.833 549,511.5C 549.49,512.793 549.657,514.127 549.5,515.5 Z"/></g>
<g><path style="opacity:1" fill="#6a4398" d="M 819.5,508.5 C 820.873,508.343 822.207,508.51 823.5,509C 822.185,510.395 822.519,511.395 824.5,512C 824.167,512.333 823.833,512.667 823.5,513C 825.917,514.144 826.584,515.81 825.5,518C 826.973,518.71 827.64,519.876 827.5,521.5C 817.994,526.417 808.994,532.083 800.5,538.5C 800.719,537.325 800.386,536.325 799.5,535.5C 798.232,536.428 796.899,536.595 795.5,536C 796.92,533.791 798.587,531.791 800.5,530C 797.258,529.717 796.924,528.883 799.5,527.5C 799.24,526.095 798.907,524.762 798.5,523.5C 804.934,517.776 811.934,512.776 819.5,508.5 Z"/></g>
<g><path style="opacity:1" fill="#79469c" d="M 910.5,516.5 C 913.99,518.936 917.823,519.603 922,518.5C 923.5,519 925,519.5 926.5,520C 935.062,529.919 946.062,534.585 959.5,534C 957.527,534.495 955.527,534.662 953.5,534.5C 929.714,533.966 906.047,535.299 882.5,538.5C 880.255,537.377 877.921,536.211 875.5,535C 875.833,534.667 876.167,534.333 876.5,534C 873.119,530.816 871.452,527.149 871.5,523C 870.906,522.536 870.239,522.369 869.5,522.5C 882.833,519.122 896.5,517.122 910.5,516.5 Z"/></g>
<g><path style="opacity:1" fill="#524fa2" d="M 710.5,506.5 C 726.246,515.243 740.246,526.243 752.5,539.5C 751.883,539.611 751.383,539.944 751,540.5C 748.657,538.656 746.49,536.656 744.5,534.5C 740.748,536.95 736.915,536.95 733,534.5C 731.699,534.639 730.866,535.305 730.5,536.5C 721.464,530.316 712.13,524.65 702.5,519.5C 702.918,518.778 703.584,518.278 704.5,518C 702.623,516.815 700.623,515.815 698.5,515C 701.294,514.851 703.961,513.684 706.5,511.5C 706.291,510.914 705.957,510.414 705.5,510C 707.323,509.003 708.99,507.836 710.5,506.5 Z"/></g>
<g><path style="opacity:1" fill="#89449a" d="M 999.5,492.5 C 1002.56,507.219 1004.06,522.219 1004,537.5C 1003.53,538.931 1002.7,540.097 1001.5,541C 985.395,538.873 969.395,536.706 953.5,534.5C 955.527,534.662 957.527,534.495 959.5,534C 946.062,534.585 935.062,529.919 926.5,520C 925,519.5 923.5,519 922,518.5C 917.823,519.603 913.99,518.936 910.5,516.5C 934.938,514.881 959.271,515.881 983.5,519.5C 982.928,510.823 982.261,502.157 981.5,493.5C 983.045,492.77 983.878,491.437 984,489.5C 989.527,491.768 993.527,496.101 996,502.5C 997.122,499.116 998.289,495.782 999.5,492.5 Z"/></g>
<g><path style="opacity:1" fill="#3e5ba9" d="M 680.5,526.5 C 678.255,526.541 677.588,527.375 678.5,529C 672.76,529.245 667.76,531.245 663.5,535C 660.711,535.241 658.044,535.908 655.5,537C 656.167,537.333 656.833,537.667 657.5,538C 656.584,538.278 655.918,538.778 655.5,539.5C 632.007,535.636 608.34,533.969 584.5,534.5C 580.486,534.666 576.486,534.499 572.5,534C 576.283,533.988 579.617,532.821 582.5,530.5C 579.986,528.443 578.653,526.11 578.5,523.5C 579.04,522.252 579.707,521.085 580.5,520C 580.167,519.667 579.833,519.333 579.5,519C 580.5,518.667 581.5,518.333 582.5,518C 580.942,517.79 579.609,517.29 578.5,516.5C 613.173,514.301 647.173,517.634 680.5,526.5 Z"/></g>
<g><path style="opacity:1" fill="#6a449a" d="M 869.5,522.5 C 870.239,522.369 870.906,522.536 871.5,523C 871.452,527.149 873.119,530.816 876.5,534C 876.167,534.333 875.833,534.667 875.5,535C 877.921,536.211 880.255,537.377 882.5,538.5C 864.451,541.429 846.785,545.762 829.5,551.5C 829.881,549.058 829.214,548.391 827.5,549.5C 826.149,546.804 824.316,544.47 822,542.5C 821.51,541.207 821.343,539.873 821.5,538.5C 819.167,538.5 816.833,538.5 814.5,538.5C 832.044,530.766 850.378,525.433 869.5,522.5 Z"/></g>
<g><path style="opacity:1" fill="#454ea1" d="M 680.5,526.5 C 694.931,529.23 708.598,533.897 721.5,540.5C 719.719,542.787 717.552,543.12 715,541.5C 709.262,543.457 703.429,544.957 697.5,546C 699.141,547.129 700.141,548.629 700.5,550.5C 685.704,546.051 670.704,542.384 655.5,539.5C 655.918,538.778 656.584,538.278 657.5,538C 656.833,537.667 656.167,537.333 655.5,537C 658.044,535.908 660.711,535.241 663.5,535C 667.76,531.245 672.76,529.245 678.5,529C 677.588,527.375 678.255,526.541 680.5,526.5 Z"/></g>
<g><path style="opacity:1" fill="#5b4198" d="M 798.5,523.5 C 798.907,524.762 799.24,526.095 799.5,527.5C 796.924,528.883 797.258,529.717 800.5,530C 798.587,531.791 796.92,533.791 795.5,536C 796.899,536.595 798.232,536.428 799.5,535.5C 800.386,536.325 800.719,537.325 800.5,538.5C 794.178,542.186 789.011,546.852 785,552.5C 794.264,546.618 804.097,541.951 814.5,538.5C 816.833,538.5 819.167,538.5 821.5,538.5C 821.343,539.873 821.51,541.207 822,542.5C 824.316,544.47 826.149,546.804 827.5,549.5C 829.214,548.391 829.881,549.058 829.5,551.5C 817.96,555.269 806.627,559.602 795.5,564.5C 792.52,564.62 789.687,565.287 787,566.5C 785.989,565.663 784.822,565.33 783.5,565.5C 783.357,563.738 783.691,562.071 784.5,560.5C 783.272,558.679 781.606,557.679 779.5,557.5C 779.67,556.178 779.337,555.011 778.5,554C 776.189,554.155 773.856,554.155 771.5,554C 772.252,553.329 772.586,552.496 772.5,551.5C 779.392,540.605 788.059,531.271 798.5,523.5 Z"/></g>
<g><path style="opacity:1" fill="#51469b" d="M 768.5,407.5 C 769.167,455.833 769.833,504.167 770.5,552.5C 771.167,552.167 771.833,551.833 772.5,551.5C 772.586,552.496 772.252,553.329 771.5,554C 773.856,554.155 776.189,554.155 778.5,554C 779.337,555.011 779.67,556.178 779.5,557.5C 781.606,557.679 783.272,558.679 784.5,560.5C 783.691,562.071 783.357,563.738 783.5,565.5C 784.822,565.33 785.989,565.663 787,566.5C 789.687,565.287 792.52,564.62 795.5,564.5C 791.722,566.892 787.722,569.059 783.5,571C 780.233,581.143 773.233,585.476 762.5,584C 760.051,583.275 757.717,582.275 755.5,581C 753.248,577.832 751.248,574.499 749.5,571C 733.513,563.068 717.18,556.235 700.5,550.5C 700.141,548.629 699.141,547.129 697.5,546C 703.429,544.957 709.262,543.457 715,541.5C 717.552,543.12 719.719,542.787 721.5,540.5C 731.041,543.1 740.041,547.1 748.5,552.5C 749.293,551.645 748.96,550.811 747.5,550C 741.803,545.492 736.136,540.992 730.5,536.5C 730.866,535.305 731.699,534.639 733,534.5C 736.915,536.95 740.748,536.95 744.5,534.5C 746.49,536.656 748.657,538.656 751,540.5C 751.383,539.944 751.883,539.611 752.5,539.5C 756.164,543.332 759.664,547.332 763,551.5C 763.5,519.168 763.667,486.835 763.5,454.5C 764.328,448.013 764.828,441.346 765,434.5C 765.415,436.291 766.415,437.624 768,438.5C 768.5,428.172 768.666,417.839 768.5,407.5 Z"/></g>
<g><path style="opacity:1" fill="#8d84b9" d="M 854.5,643.5 C 849.167,643.5 843.833,643.5 838.5,643.5C 838.83,662.674 838.497,681.674 837.5,700.5C 837.5,681.167 837.5,661.833 837.5,642.5C 843.358,642.178 849.025,642.511 854.5,643.5 Z"/></g>
<g><path style="opacity:1" fill="#3d4144" d="M 564.5,643.5 C 574.638,662.438 584.805,681.438 595,700.5C 604.913,681.673 615.079,663.007 625.5,644.5C 631.798,643.504 638.132,643.17 644.5,643.5C 644.5,672.833 644.5,702.167 644.5,731.5C 639.167,731.5 633.833,731.5 628.5,731.5C 628.667,710.164 628.5,688.831 628,667.5C 627.59,668.901 627.09,670.234 626.5,671.5C 617.925,686.981 609.591,702.648 601.5,718.5C 596.95,719.8 592.45,719.8 588,718.5C 579.318,701.802 570.652,685.135 562,668.5C 561.5,689.164 561.333,709.831 561.5,730.5C 556.5,730.5 551.5,730.5 546.5,730.5C 546.5,701.5 546.5,672.5 546.5,643.5C 552.5,643.5 558.5,643.5 564.5,643.5 Z"/></g>
<g><path style="opacity:1" fill="#4c449e" d="M 797.5,701.5 C 797.5,702.167 797.5,702.833 797.5,703.5C 796.652,705.093 795.319,706.26 793.5,707C 794.654,707.914 794.487,708.747 793,709.5C 790.92,707.027 788.754,707.027 786.5,709.5C 785.274,707.722 783.607,706.722 781.5,706.5C 781.5,705.5 781.5,704.5 781.5,703.5C 781.5,683.5 781.5,663.5 781.5,643.5C 786.5,643.5 791.5,643.5 796.5,643.5C 796.17,663.007 796.503,682.341 797.5,701.5 Z"/></g>
<g><path style="opacity:1" fill="#3b4043" d="M 491.5,717.5 C 505.5,717.5 519.5,717.5 533.5,717.5C 533.5,721.833 533.5,726.167 533.5,730.5C 513.833,730.5 494.167,730.5 474.5,730.5C 474.5,701.5 474.5,672.5 474.5,643.5C 479.833,643.5 485.167,643.5 490.5,643.5C 490.169,668.339 490.502,693.006 491.5,717.5 Z"/></g>
<g><path style="opacity:1" fill="#6d469a" d="M 1042.5,711.5 C 1041.67,701.008 1041.17,690.341 1041,679.5C 1039.25,678.701 1037.92,679.368 1037,681.5C 1036.51,674.296 1034.68,673.796 1031.5,680C 1031.96,684.127 1031.46,688.294 1030,692.5C 1029.24,690.231 1029.41,688.064 1030.5,686C 1029.75,684.266 1029.25,682.433 1029,680.5C 1028.67,681.5 1028.33,682.5 1028,683.5C 1027.77,682.263 1027.27,681.263 1026.5,680.5C 1022.83,680.5 1019.17,680.5 1015.5,680.5C 1015.5,676.167 1015.5,671.833 1015.5,667.5C 1019.17,667.5 1022.83,667.5 1026.5,667.5C 1026.5,661.167 1026.5,654.833 1026.5,648.5C 1031.83,648.5 1037.17,648.5 1042.5,648.5C 1042.5,654.833 1042.5,661.167 1042.5,667.5C 1048.5,667.5 1054.5,667.5 1060.5,667.5C 1060.5,671.833 1060.5,676.167 1060.5,680.5C 1054.5,680.5 1048.5,680.5 1042.5,680.5C 1042.5,690.833 1042.5,701.167 1042.5,711.5 Z"/></g>
<g><path style="opacity:1" fill="#574096" d="M 929.5,674.5 C 931.465,676.768 932.632,679.435 933,682.5C 933.5,698.497 933.667,714.497 933.5,730.5C 928.5,730.5 923.5,730.5 918.5,730.5C 918.829,717.323 918.495,704.323 917.5,691.5C 917.525,685.196 914.525,681.196 908.5,679.5C 910.292,678.691 912.292,678.191 914.5,678C 915.061,676.324 916.061,674.991 917.5,674C 920.095,673.774 922.595,673.274 925,672.5C 926,673.833 927,675.167 928,676.5C 928.278,675.584 928.778,674.918 929.5,674.5 Z"/></g>
<g><path style="opacity:1" fill="#674297" d="M 1042.5,711.5 C 1043.04,714.745 1044.71,717.245 1047.5,719C 1051.82,719.076 1056.15,718.909 1060.5,718.5C 1060.5,720.833 1060.5,723.167 1060.5,725.5C 1060.5,727.167 1060.5,728.833 1060.5,730.5C 1059.21,730.263 1058.21,730.596 1057.5,731.5C 1050.04,733.097 1042.7,732.597 1035.5,730C 1029.98,726.793 1027.14,721.959 1027,715.5C 1026.5,703.838 1026.33,692.171 1026.5,680.5C 1027.27,681.263 1027.77,682.263 1028,683.5C 1028.33,682.5 1028.67,681.5 1029,680.5C 1029.25,682.433 1029.75,684.266 1030.5,686C 1029.41,688.064 1029.24,690.231 1030,692.5C 1031.46,688.294 1031.96,684.127 1031.5,680C 1034.68,673.796 1036.51,674.296 1037,681.5C 1037.92,679.368 1039.25,678.701 1041,679.5C 1041.17,690.341 1041.67,701.008 1042.5,711.5 Z"/></g>
<g><path style="opacity:1" fill="#58469b" d="M 929.5,674.5 C 928.778,674.918 928.278,675.584 928,676.5C 927,675.167 926,673.833 925,672.5C 922.595,673.274 920.095,673.774 917.5,674C 916.061,674.991 915.061,676.324 914.5,678C 912.292,678.191 910.292,678.691 908.5,679.5C 900.537,677.896 894.37,680.563 890,687.5C 888.55,702.095 888.05,716.761 888.5,731.5C 883.167,731.5 877.833,731.5 872.5,731.5C 872.5,710.167 872.5,688.833 872.5,667.5C 877.5,667.5 882.5,667.5 887.5,667.5C 887.183,670.572 887.516,673.572 888.5,676.5C 893.519,668.774 900.685,665.108 910,665.5C 917.827,665.928 924.327,668.928 929.5,674.5 Z"/></g>
<g><path style="opacity:1" fill="#404448" d="M 685.5,641.5 C 697.743,640.08 709.41,641.913 720.5,647C 727.496,652.169 731.496,659.002 732.5,667.5C 726.833,667.5 721.167,667.5 715.5,667.5C 715.037,662.738 712.704,659.238 708.5,657C 700.495,653.799 692.495,653.799 684.5,657C 677.635,663.413 677.969,669.413 685.5,675C 696.996,677.366 708.329,680.366 719.5,684C 735.767,693.025 738.934,705.525 729,721.5C 720.003,729.215 709.503,732.882 697.5,732.5C 684.922,732.989 674.088,728.989 665,720.5C 661.272,715.817 659.439,710.484 659.5,704.5C 665.167,704.5 670.833,704.5 676.5,704.5C 676.935,709.446 679.269,713.28 683.5,716C 693.678,720.811 703.678,720.477 713.5,715C 717.883,710.534 718.383,705.701 715,700.5C 707.362,695.297 698.862,692.464 689.5,692C 681,690.511 673.5,687.011 667,681.5C 658.627,668.032 660.793,656.532 673.5,647C 677.644,645.241 681.644,643.408 685.5,641.5 Z"/></g>
<g><path style="opacity:1" fill="#6e68a8" d="M 797.5,701.5 C 796.503,682.341 796.17,663.007 796.5,643.5C 791.5,643.5 786.5,643.5 781.5,643.5C 781.5,663.5 781.5,683.5 781.5,703.5C 780.503,683.34 780.17,663.007 780.5,642.5C 786.167,642.5 791.833,642.5 797.5,642.5C 797.5,662.167 797.5,681.833 797.5,701.5 Z"/></g>
<g><path style="opacity:1" fill="#6c6f71" d="M 491.5,717.5 C 490.502,693.006 490.169,668.339 490.5,643.5C 485.167,643.5 479.833,643.5 474.5,643.5C 474.5,672.5 474.5,701.5 474.5,730.5C 494.167,730.5 513.833,730.5 533.5,730.5C 513.674,731.497 493.674,731.83 473.5,731.5C 473.5,701.833 473.5,672.167 473.5,642.5C 479.5,642.5 485.5,642.5 491.5,642.5C 491.5,667.5 491.5,692.5 491.5,717.5 Z"/></g>
<g><path style="opacity:1" fill="#4e4499" d="M 854.5,643.5 C 854.667,662.836 854.5,682.17 854,701.5C 852.871,718.96 843.704,729.127 826.5,732C 818.445,732.822 810.445,732.488 802.5,731C 790.657,726.99 783.657,718.824 781.5,706.5C 783.607,706.722 785.274,707.722 786.5,709.5C 788.754,707.027 790.92,707.027 793,709.5C 794.487,708.747 794.654,707.914 793.5,707C 795.319,706.26 796.652,705.093 797.5,703.5C 801.891,716.281 810.891,721.114 824.5,718C 832.861,715.096 837.194,709.263 837.5,700.5C 838.497,681.674 838.83,662.674 838.5,643.5C 843.833,643.5 849.167,643.5 854.5,643.5 Z"/></g>
<g><path style="opacity:1" fill="#624699" d="M 977.5,665.5 C 1001.28,666.382 1012.12,678.716 1010,702.5C 994.578,703.491 979.078,703.824 963.5,703.5C 963.875,711.385 967.875,716.552 975.5,719C 984.893,721.36 993.393,719.527 1001,713.5C 1006.09,716.217 1008.26,720.551 1007.5,726.5C 996.774,731.428 985.441,733.261 973.5,732C 956.288,727.607 947.288,716.44 946.5,698.5C 948.353,679.319 958.686,668.319 977.5,665.5 Z"/></g>
<g><path style="opacity:1" fill="#f9f8fb" d="M 976.5,677.5 C 988.374,676.414 994.374,681.747 994.5,693.5C 984.167,693.5 973.833,693.5 963.5,693.5C 964.209,685.132 968.543,679.799 976.5,677.5 Z"/></g>
<g><path style="opacity:1" fill="#ced1d1" d="M 628.5,731.5 C 627.833,711.5 627.167,691.5 626.5,671.5C 627.09,670.234 627.59,668.901 628,667.5C 628.5,688.831 628.667,710.164 628.5,731.5 Z"/></g>
<g><path style="opacity:1" fill="#7a69a9" d="M 917.5,691.5 C 918.495,704.323 918.829,717.323 918.5,730.5C 923.5,730.5 928.5,730.5 933.5,730.5C 928.36,731.488 923.026,731.821 917.5,731.5C 917.5,718.167 917.5,704.833 917.5,691.5 Z"/></g>
<g><path style="opacity:1" fill="#5f6366" d="M 564.5,643.5 C 558.5,643.5 552.5,643.5 546.5,643.5C 546.5,672.5 546.5,701.5 546.5,730.5C 551.5,730.5 556.5,730.5 561.5,730.5C 556.36,731.488 551.026,731.821 545.5,731.5C 545.5,701.833 545.5,672.167 545.5,642.5C 552.022,642.177 558.355,642.51 564.5,643.5 Z"/></g>
<g><path style="opacity:1" fill="#cebae1" d="M 1060.5,725.5 C 1061.46,727.265 1061.79,729.265 1061.5,731.5C 1060.17,731.5 1058.83,731.5 1057.5,731.5C 1058.21,730.596 1059.21,730.263 1060.5,730.5C 1060.5,728.833 1060.5,727.167 1060.5,725.5 Z"/></g>
</svg>
